<?xml version="1.0" encoding="iso-8859-1"?>
<!-- Generator: Adobe Illustrator 19.0.0, SVG Export Plug-In . SVG Version: 6.00 Build 0)  -->
<svg version="1.1" id="Layer_1" xmlns="http://www.w3.org/2000/svg" xmlns:xlink="http://www.w3.org/1999/xlink" x="0px" y="0px"
	 viewBox="0 0 512 512" style="enable-background:new 0 0 512 512;" xml:space="preserve">
<path style="fill:#CAEEC5;" d="M450.895,178.329v69.622c0,114.877-95.691,208.869-212.64,208.869l0,0
	c-116.95,0-212.638-93.992-212.638-208.869v-69.622L450.895,178.329L450.895,178.329z"/>
<path style="fill:#DDC98B;" d="M450.895,244.869v3.081c0,114.877-95.691,208.869-212.64,208.869S25.617,362.828,25.617,247.95
	v-3.081H450.895z"/>
<path style="fill:#BC9A5E;" d="M440.707,311.652C413.12,395.627,332.613,456.82,238.255,456.82S63.393,395.627,35.806,311.652
	H440.707z"/>
<path style="fill:#9E9D9D;" d="M462.6,503.096c0,4.917-4.005,8.904-8.947,8.904H22.86c-4.941,0-8.947-3.987-8.947-8.904
	c0-4.917,4.005-8.904,8.947-8.904h430.793C458.594,494.191,462.6,498.178,462.6,503.096z"/>
<path style="fill:#97BAA8;" d="M450.895,178.329v69.622c0,114.877-95.691,208.869-212.64,208.869S25.617,362.829,25.617,247.951
	v-69.622h33.549v69.622c0,96.759,80.338,175.478,179.089,175.478c98.751,0,179.091-78.719,179.091-175.478v-69.622L450.895,178.329
	L450.895,178.329z"/>
<path style="fill:#5B5B5B;" d="M426.791,98.929L311.98,256.542c-2.871,3.94-8.381,4.851-12.373,2.069
	c-0.041-0.029-0.081-0.057-0.122-0.087c-4-2.887-4.892-8.455-1.992-12.436L412.304,88.477c2.901-3.981,8.504-4.878,12.494-1.982
	C428.799,89.381,429.691,94.948,426.791,98.929z"/>
<path style="fill:#FF4328;" d="M415.501,50.718l10.28-13.877l18.392-24.813c9.652-13.03,28.405-15.931,41.67-6.446l0,0
	c13.265,9.486,16.217,27.905,6.563,40.934L474.019,71.33l-10.286,13.877l-18.386,24.813c-9.66,13.03-28.407,15.931-41.673,6.448l0,0
	c-13.271-9.485-16.217-27.906-6.565-40.937L415.501,50.718L415.501,50.718z"/>
<path style="fill:#C13421;" d="M403.581,116.398c-13.191-9.505-16.101-27.867-6.472-40.866l18.392-24.813l10.28-13.877
	l18.392-24.813c8.949-12.081,25.717-15.447,38.685-8.316L403.581,116.398z"/>
<path style="fill:#9E9E9E;" d="M291.727,202.132l63.354,45.299l-31.083,100.293c-11.877,38.318-70.607,39.588-103.571,16.021
	l-0.003-0.004c-32.962-23.566-49.771-78.859-16.311-101.73L291.727,202.132L291.727,202.132z"/>
<path style="fill:#7F7F7F;" d="M303.394,270.239l-17.155,55.362c-1.456,4.699-6.465,7.334-11.186,5.885
	c-0.915-0.28-1.753-0.696-2.498-1.214c-3.096-2.158-4.588-6.131-3.414-9.919l17.155-55.362c1.456-4.699,6.465-7.334,11.186-5.885
	C302.202,260.553,304.85,265.54,303.394,270.239z M241.317,285.02c-4.722-1.449-9.73,1.185-11.186,5.885l-3.861,12.463
	c-1.174,3.788,0.318,7.761,3.415,9.918c0.745,0.519,1.583,0.933,2.498,1.214c4.722,1.449,9.73-1.185,11.186-5.885l3.861-12.463
	C248.685,291.454,246.036,286.468,241.317,285.02z"/>
<g>
</g>
<g>
</g>
<g>
</g>
<g>
</g>
<g>
</g>
<g>
</g>
<g>
</g>
<g>
</g>
<g>
</g>
<g>
</g>
<g>
</g>
<g>
</g>
<g>
</g>
<g>
</g>
<g>
</g>
</svg>
